<?xml version="1.0" encoding="utf-8"?>
<!-- Generator: Adobe Illustrator 16.0.0, SVG Export Plug-In . SVG Version: 6.00 Build 0)  -->
<!DOCTYPE svg PUBLIC "-//W3C//DTD SVG 1.1//EN" "http://www.w3.org/Graphics/SVG/1.1/DTD/svg11.dtd">
<svg version="1.1" id="Layer_1" xmlns="http://www.w3.org/2000/svg" xmlns:xlink="http://www.w3.org/1999/xlink" x="0px" y="0px"
	 width="24px" height="24px" viewBox="0 0 24 24" enable-background="new 0 0 24 24" xml:space="preserve">
<g id="Frames-24px">
	<rect fill="none" width="24" height="24"/>
</g>
<g>
	<path d="M5.425,14.769c-1.526,0-2.769-1.242-2.769-2.769s1.242-2.769,2.769-2.769S8.193,10.474,8.193,12S6.951,14.769,5.425,14.769
		z M5.425,10.616c-0.764,0-1.384,0.621-1.384,1.384s0.621,1.384,1.384,1.384S6.809,12.764,6.809,12S6.188,10.616,5.425,10.616z"/>
	<path d="M12,14.769c-1.526,0-2.769-1.242-2.769-2.769S10.474,9.231,12,9.231s2.769,1.242,2.769,2.769S13.526,14.769,12,14.769z
		 M12,10.616c-0.764,0-1.384,0.621-1.384,1.384s0.621,1.384,1.384,1.384s1.384-0.62,1.384-1.384S12.764,10.616,12,10.616z"/>
	<path d="M18.575,14.769c-1.526,0-2.769-1.242-2.769-2.769s1.242-2.769,2.769-2.769s2.769,1.242,2.769,2.769
		S20.102,14.769,18.575,14.769z M18.575,10.616c-0.764,0-1.384,0.621-1.384,1.384s0.62,1.384,1.384,1.384s1.384-0.62,1.384-1.384
		S19.339,10.616,18.575,10.616z"/>
</g>
</svg>
