<?xml version="1.0" encoding="utf-8"?>
<!-- Generator: Adobe Illustrator 16.0.0, SVG Export Plug-In . SVG Version: 6.00 Build 0)  -->
<!DOCTYPE svg PUBLIC "-//W3C//DTD SVG 1.1//EN" "http://www.w3.org/Graphics/SVG/1.1/DTD/svg11.dtd">
<svg version="1.1" id="Layer_1" xmlns="http://www.w3.org/2000/svg" xmlns:xlink="http://www.w3.org/1999/xlink" x="0px" y="0px"
	 width="24px" height="24px" viewBox="0 0 24 24" enable-background="new 0 0 24 24" xml:space="preserve">
<g id="Frames-24px">
	<rect fill="none" width="24" height="24"/>
</g>
<path d="M20.002,5.177c-1.024-1.02-2.381-1.582-3.821-1.582c-1.442,0-2.798,0.562-3.821,1.582l-0.36,0.361l-0.358-0.361
	c-1.022-1.02-2.379-1.582-3.821-1.582c-1.444,0-2.801,0.562-3.821,1.582c-2.103,2.107-2.103,5.535,0,7.643l7.303,7.299
	c0.143,0.14,0.318,0.234,0.519,0.271l0.188,0.016c0.26,0,0.506-0.102,0.693-0.287l7.302-7.299
	C22.105,10.712,22.105,7.284,20.002,5.177z M18.607,11.423l-6.608,6.611l-6.606-6.611c-1.338-1.338-1.338-3.514,0-4.854
	C6.038,5.923,6.9,5.565,7.819,5.565s1.782,0.357,2.427,1.006l1.057,1.054c0.178,0.179,0.432,0.28,0.696,0.28
	c0.266,0,0.521-0.102,0.699-0.277l1.056-1.059c0.646-0.646,1.508-1.004,2.427-1.004c0.917,0,1.779,0.357,2.427,1.006
	C19.943,7.909,19.943,10.085,18.607,11.423z"/>
</svg>
