<?xml version="1.0" encoding="utf-8"?>
<!-- Generator: Adobe Illustrator 16.0.0, SVG Export Plug-In . SVG Version: 6.00 Build 0)  -->
<!DOCTYPE svg PUBLIC "-//W3C//DTD SVG 1.1//EN" "http://www.w3.org/Graphics/SVG/1.1/DTD/svg11.dtd">
<svg version="1.1" id="Layer_1" xmlns="http://www.w3.org/2000/svg" xmlns:xlink="http://www.w3.org/1999/xlink" x="0px" y="0px"
	 width="24px" height="24px" viewBox="0 0 24 24" enable-background="new 0 0 24 24" xml:space="preserve">
<g id="Frames-24px">
	<rect fill="none" width="24" height="24"/>
</g>
<path d="M20.793,19.062l-5.197-5.197c0.854-1.073,1.369-2.429,1.369-3.904c0-3.462-2.816-6.279-6.279-6.279
	c-3.462,0-6.279,2.817-6.279,6.279c0,3.463,2.817,6.279,6.279,6.279c1.266,0,2.443-0.38,3.431-1.026l5.263,5.263L20.793,19.062z
	 M6.406,9.96c0-2.359,1.92-4.279,4.279-4.279s4.279,1.92,4.279,4.279s-1.92,4.279-4.279,4.279S6.406,12.319,6.406,9.96z"/>
</svg>
