<?xml version="1.0" encoding="utf-8"?>
<!-- Generator: Adobe Illustrator 16.0.0, SVG Export Plug-In . SVG Version: 6.00 Build 0)  -->
<!DOCTYPE svg PUBLIC "-//W3C//DTD SVG 1.1//EN" "http://www.w3.org/Graphics/SVG/1.1/DTD/svg11.dtd">
<svg version="1.1" id="Layer_1" xmlns="http://www.w3.org/2000/svg" xmlns:xlink="http://www.w3.org/1999/xlink" x="0px" y="0px"
	 width="24px" height="24px" viewBox="0 0 24 24" enable-background="new 0 0 24 24" xml:space="preserve">
<g id="Frames-24px">
	<rect fill="none" width="24" height="24"/>
</g>
<path d="M17.757,15.393c-1.082,0-2.059,0.424-2.8,1.102l-4.688-3.125c0.084-0.33,0.143-0.67,0.143-1.027
	c0-0.564-0.115-1.102-0.32-1.594l0,0l4.866-3.244c0.741,0.678,1.718,1.102,2.8,1.102c2.297,0,4.166-1.868,4.166-4.167
	c0-2.298-1.869-4.165-4.166-4.165c-2.298,0-4.167,1.867-4.167,4.165c0,0.565,0.115,1.103,0.319,1.595l0,0L9.044,9.277
	C8.303,8.6,7.325,8.176,6.244,8.176c-2.298,0-4.167,1.869-4.167,4.166c0,2.299,1.869,4.168,4.167,4.168
	c1.29,0,2.431-0.602,3.195-1.525l4.47,2.98c-0.205,0.492-0.32,1.029-0.32,1.594c0,2.299,1.87,4.168,4.168,4.168
	c2.297,0,4.166-1.869,4.166-4.168C21.923,17.262,20.054,15.393,17.757,15.393z M17.757,2.076c1.303,0,2.361,1.06,2.361,2.362
	s-1.059,2.363-2.361,2.363s-2.363-1.061-2.363-2.363S16.454,2.076,17.757,2.076z M6.244,14.705c-1.304,0-2.362-1.059-2.362-2.363
	c0-1.303,1.059-2.362,2.362-2.362c1.303,0,2.362,1.06,2.362,2.362C8.606,13.646,7.547,14.705,6.244,14.705z M9.945,14.217
	c-0.005,0.01-0.011,0.018-0.015,0.027C9.935,14.234,9.94,14.227,9.945,14.217z M17.757,21.922c-1.304,0-2.363-1.059-2.363-2.363
	c0-1.303,1.06-2.363,2.363-2.363c1.303,0,2.361,1.061,2.361,2.363C20.118,20.863,19.06,21.922,17.757,21.922z"/>
</svg>
